<svg xmlns="http://www.w3.org/2000/svg" width="48" height="48" viewBox="0 0 48 48">
  <metadata><?xpacket begin="﻿" id="W5M0MpCehiHzreSzNTczkc9d"?>
<x:xmpmeta xmlns:x="adobe:ns:meta/" x:xmptk="Adobe XMP Core 5.6-c140 79.160451, 2017/05/06-01:08:21        ">
   <rdf:RDF xmlns:rdf="http://www.w3.org/1999/02/22-rdf-syntax-ns#">
      <rdf:Description rdf:about=""/>
   </rdf:RDF>
</x:xmpmeta>
                                                                                                    
                                                                                                    
                                                                                                    
                                                                                                    
                                                                                                    
                                                                                                    
                                                                                                    
                                                                                                    
                                                                                                    
                                                                                                    
                                                                                                    
                                                                                                    
                                                                                                    
                                                                                                    
                                                                                                    
                                                                                                    
                                                                                                    
                                                                                                    
                                                                                                    
                                                                                                    
                           
<?xpacket end="w"?></metadata>
<defs>
    <style>
      .cls-1 {
        fill: #fff;
        fill-rule: evenodd;
      }
    </style>
  </defs>
  <path id="Forma_1" data-name="Forma 1" class="cls-1" d="M837.184,539.174V526.142h-3.012V522.8h7.169v16.371h-4.157Zm19.78-12.144a3.825,3.825,0,0,1-2.055,3.386,4.478,4.478,0,0,1,2.92,4.134c0,2.942-2.616,4.81-6.7,4.81s-6.7-1.845-6.7-4.74a4.57,4.57,0,0,1,3.106-4.2,4.117,4.117,0,0,1-2.265-3.5c0-2.616,2.289-4.274,5.839-4.274C854.7,522.639,856.964,524.344,856.964,527.03Zm-8.617,7.169c0,1.378.981,2.149,2.779,2.149s2.8-.747,2.8-2.149c0-1.354-1-2.125-2.8-2.125S848.347,532.845,848.347,534.2Zm0.42-6.936c0,1.168.841,1.822,2.359,1.822s2.359-.654,2.359-1.822c0-1.214-.841-1.891-2.359-1.891S848.767,526.049,848.767,527.263Zm15.979-2.612a19.774,19.774,0,1,1-12.4-12.4v-4.4a23.983,23.983,0,1,0,16.8,16.8h-4.4Zm-1.2-11.213v-4.6h-3.309v4.6h-4.574v3.309h4.574v4.6h3.309v-4.6h4.6v-3.309h-4.6Z" transform="translate(-822 -507)"/>
</svg>
