<svg xmlns="http://www.w3.org/2000/svg" width="46" height="37" viewBox="0 0 46 37">
  <metadata><?xpacket begin="﻿" id="W5M0MpCehiHzreSzNTczkc9d"?>
<x:xmpmeta xmlns:x="adobe:ns:meta/" x:xmptk="Adobe XMP Core 5.6-c140 79.160451, 2017/05/06-01:08:21        ">
   <rdf:RDF xmlns:rdf="http://www.w3.org/1999/02/22-rdf-syntax-ns#">
      <rdf:Description rdf:about=""/>
   </rdf:RDF>
</x:xmpmeta>
                                                                                                    
                                                                                                    
                                                                                                    
                                                                                                    
                                                                                                    
                                                                                                    
                                                                                                    
                                                                                                    
                                                                                                    
                                                                                                    
                                                                                                    
                                                                                                    
                                                                                                    
                                                                                                    
                                                                                                    
                                                                                                    
                                                                                                    
                                                                                                    
                                                                                                    
                                                                                                    
                           
<?xpacket end="w"?></metadata>
<defs>
    <style>
      .cls-1 {
        fill: #fff;
        fill-rule: evenodd;
      }
    </style>
  </defs>
  <path id="Forma_1" data-name="Forma 1" class="cls-1" d="M568.731,512.684a19.1,19.1,0,0,1-6,2.268,9.46,9.46,0,0,0-16.325,6.39,9.316,9.316,0,0,0,.245,2.127,26.883,26.883,0,0,1-19.451-9.761,9.214,9.214,0,0,0-1.276,4.7,9.315,9.315,0,0,0,4.2,7.775,9.492,9.492,0,0,1-4.274-1.173v0.117a9.379,9.379,0,0,0,7.569,9.163,9.5,9.5,0,0,1-4.263.158,9.439,9.439,0,0,0,8.813,6.49,19.061,19.061,0,0,1-11.719,4A20.132,20.132,0,0,1,524,544.8a26.92,26.92,0,0,0,14.466,4.2c17.358,0,26.849-14.236,26.849-26.582l-0.031-1.211A18.873,18.873,0,0,0,570,516.378a19.014,19.014,0,0,1-5.418,1.471A9.4,9.4,0,0,0,568.731,512.684Z" transform="translate(-524 -512)"/>
</svg>
