<svg xmlns="http://www.w3.org/2000/svg" viewBox="0 0 40.91 40.86"><title>logo-rexona</title><g id="Capa_2" data-name="Capa 2"><g id="Layer_1" data-name="Layer 1"><path d="M9.37,35.74c0-1.09.55-1.73,1.47-1.73s1.39.67,1.39,1.76v0H9.37Zm-1.8.6a3.28,3.28,0,0,0,0,.35h0a2.9,2.9,0,0,0,0,.34c0,2.48,1.37,3.67,3.17,3.8a4.92,4.92,0,0,0,2.95-.66V38.75a4.18,4.18,0,0,1-2.76.62c-1.08-.1-1.54-.81-1.57-1.93v-.25H14v-.84c0-2.47-1-3.81-3.14-3.81s-3.27,1.35-3.27,3.8m19.73-3v7.35h1.81V34.26A2.67,2.67,0,0,1,30.44,34c.83,0,1.33.58,1.33,1.75v5h1.81v-5a2.93,2.93,0,0,0-3.2-3.19,6.19,6.19,0,0,0-3.08.83m-10.12,1.8-1.33-2.46h-2l2.34,4-2.34,4h2l1.35-2.45,1.34,2.45h2l-2.33-4,2.33-4h-2Zm4.94,2.49s0-.33,0-1,0-.9,0-.9c0-1.07.46-1.74,1.33-1.74s1.3.67,1.33,1.74c0,0,0,.39,0,.9s0,1,0,1c0,1.08-.46,1.74-1.34,1.74s-1.29-.67-1.32-1.74m-1.8-1.31s0,.08,0,.36a3.28,3.28,0,0,0,0,.35c0,2.42,1.13,3.8,3.12,3.8s3.15-1.37,3.15-3.8v-.71c0-2.43-1.14-3.81-3.14-3.81s-3.13,1.37-3.13,3.81M0,30.19V40.7H1.94V31.65H3c1.58,0,2.27.84,2.27,1.94s-.7,2-2.27,2h-.5L5.54,40.7h2.2L5.23,36.5l.25-.12A3,3,0,0,0,7.2,33.55c0-1.54-.87-3.36-4-3.36Zm37.3,9.22a1.21,1.21,0,0,1-1.36-1.3,1.27,1.27,0,0,1,1.27-1.31,4.77,4.77,0,0,1,1.41.08V39.4H37.3M34.61,33v1.42A4.34,4.34,0,0,1,37,34a1.55,1.55,0,0,1,1.58,1.39,8.43,8.43,0,0,0-1.39,0c-1.7.06-3.06,1-3.06,2.75s1.36,2.63,3.13,2.63l3.17,0s0-2.18,0-3.18v-1.3c0-2.49-1.48-3.58-3.26-3.68h-.36a5.28,5.28,0,0,0-2.23.46"/><path d="M34.05.31c-.67.54-3.94,2.65-16.3,19.6-.09.13-.25.37-.49.37a.81.81,0,0,1-.39-.17l-6.35-4.45c-.39-.26-.54-.37-.61-.31s.06.27.25.59,2.55,4.26,4.62,8.14c1.76,3.32,3.14,6.06,3.2,6.17.19.37.34.65.54.65s.36-.29.54-.74A158.8,158.8,0,0,1,34.3.54c.15-.23.32-.49.26-.54h0a1.85,1.85,0,0,0-.5.31"/><path d="M39.72,30.38a1.17,1.17,0,1,1-1.21,1.16,1.17,1.17,0,0,1,1.21-1.16Zm0,.23a.93.93,0,0,0,0,1.86.89.89,0,0,0,.89-.92.92.92,0,0,0-.9-.94Zm-.17,1.54h-.27V31l.44,0a.6.6,0,0,1,.4.1.29.29,0,0,1,.12.25.29.29,0,0,1-.24.27v0c.11,0,.17.13.21.28a1.77,1.77,0,0,0,.08.29H40a.82.82,0,0,1-.09-.29.21.21,0,0,0-.24-.18h-.13Zm0-.66h.13c.15,0,.27,0,.27-.17s-.08-.18-.25-.18l-.15,0Z"/></g></g></svg>