<svg xmlns="http://www.w3.org/2000/svg" viewBox="0 0 113.63 125.74"><defs><style>.cls-1{fill:#fff;}</style></defs><title>logo-unilever</title><g id="Capa_2" data-name="Capa 2"><g id="Layer_1" data-name="Layer 1"><path class="cls-1" d="M91.52,25.71C92,29,97,33.43,98.31,33.33c.89,0,1.25-4.3,1.25-7.62,0-1.9.1-3.39-.91-3.73-1.59,3.21-5.78,3.87-7.13,3.73m.28-1.45c3.6,0,6.88-2.87,6.88-5.4a2.1,2.1,0,0,0-2-2.32,1.53,1.53,0,0,1,.35,1.11c0,1.9-2.9,4-6.06,4a1.32,1.32,0,0,0-1.49,1.21c0,1,.93,1.38,2.29,1.38M91,20.35a1.49,1.49,0,0,1-1.55-.76c-.31-.63-.21-1.63-.8-2.08a6.13,6.13,0,0,0,1.7.17c1.56,0,3.06-1.07,4.18-1.07a.9.9,0,0,1,1,1c0,1.52-3.08,2.77-4.54,2.77M13.64,47.48c1.16,0,.93-7.2,2.84-7.2.44,0,.58.45.58,1,0,1.63-.8,4-.8,5.34,0,.65.17.86.48.86.84,0,2.29-7.93,3.72-7.93.43,0,.64.45.64.9,0,1.67-2.1,6.44-2.1,7.79,0,.2.06.37.24.37.86,0,2.6-3.73,3.15-5.59.31-1,.73-1.49,1.11-1.49s.65.38.65,1.17c0,1.86-1.72,6.26-3.26,9.2-1.17,2.29-3,5.58-3,7.41a3.71,3.71,0,0,0,1.52,3.08c-2.22-.14-3.12-.35-3.94-2.08C11.76,67.69,22.29,67,18.68,73.5c-.65-1.17-5.84-2.39-5.84-9.24,0-5.92,5.19-9.38,5.19-11.84a1.58,1.58,0,0,0-.63-1.27c-1.14-1-1.17-1.77-2.06-1.77-.67,0-1.46,1.53-.64,2.87.29.45.53.73.53,1.14,0,1-1.53,3.56-2.61,3.56s-1.89-2.66-1.89-7c0-3.81.87-7.64,1.94-7.64.31,0,.41.2.41.48,0,.45-.15,1.35-.15,2.87s.39,1.77.71,1.77m53-34c.55,0,.66,1.35.77,2.15.07.41.13.44.3.44.43,0,1.08-1.59,1.53-1.59.66,0,2.43,1.84,5.36,1.84a7.89,7.89,0,0,0,8.14-8.13c0-5-3.54-8-8.41-8-2.32,0-4,1.14-4.92,1.14C68.86,1.38,68,0,67.61,0c-.17,0-.35.35-.35.93,0,.38,0,1.6-.42,1.6-.81,0-4-2.39-4-1.53s2.14,3.22,2.14,3.84-2.11,1.22-2.11,1.63c0,.76,2.25.9,2.25,1.87s-2.35,1.73-2.35,2.47c0,.58,2.35.16,2.35.89s-1.73,3.14-1.73,3.84c0,.18,0,.18.18.18.66,0,2.64-2.26,3.11-2.26M22.25,64.6a1.33,1.33,0,0,1,1.18-1.41,1.3,1.3,0,0,1,1.45,1.17,1.34,1.34,0,0,1-1.18,1.45,1.36,1.36,0,0,1-1.45-1.21m-3.84,1.08a2.24,2.24,0,0,0,2.48,1.93,2.74,2.74,0,0,0,1.16-.34,2.09,2.09,0,0,0,2.42,1.66,2.18,2.18,0,0,0,2-2.46,1.84,1.84,0,0,0-.21-.79l.25,0a2.26,2.26,0,0,0-.41-4.51,2.63,2.63,0,0,0-1.12.49,2.29,2.29,0,0,0-2.48-1.73,2.25,2.25,0,0,0-2,2.52,1.82,1.82,0,0,0,.17.69l-.23,0a2.32,2.32,0,0,0-2.05,2.53M95.51,2.21a.84.84,0,0,0,.85.87.87.87,0,1,0,0-1.73.85.85,0,0,0-.85.86M76.19,35a1.46,1.46,0,1,0,2.91,0,1.46,1.46,0,0,0-2.91,0m.11,4.36a1.63,1.63,0,1,0,1.63-1.63,1.63,1.63,0,0,0-1.63,1.63m-5,2.94a2.39,2.39,0,0,0,4.78,0,2.39,2.39,0,1,0-4.78,0m1.28-4.88A1.39,1.39,0,1,0,74,36.06a1.38,1.38,0,0,0-1.38,1.38m-4.54,2.77a1.39,1.39,0,1,0,1.39-1.39,1.4,1.4,0,0,0-1.39,1.39m3.56-8.1a2.22,2.22,0,1,0,2.22-2.21,2.24,2.24,0,0,0-2.22,2.21m2.6-4.26a1.32,1.32,0,1,0,2.63,0,1.32,1.32,0,0,0-2.63,0M68,31.18a1.32,1.32,0,1,0,1.32-1.31A1.31,1.31,0,0,0,68,31.18m-.17,4.49a2.12,2.12,0,1,0,2.12-2.1,2.1,2.1,0,0,0-2.12,2.1M63.42,37.9a2,2,0,1,0,2-2,2,2,0,0,0-2,2M64.6,33A1.4,1.4,0,0,0,66,34.4,1.39,1.39,0,1,0,64.6,33M60,84a1.38,1.38,0,1,0,1.39-1.38A1.38,1.38,0,0,0,60,84M22.78,26.68a1.38,1.38,0,1,0,1.37-1.39,1.39,1.39,0,0,0-1.37,1.39M21,23.57a1.39,1.39,0,1,0,1.39-1.39A1.39,1.39,0,0,0,21,23.57m1.5,34.05c1.45,0,2.67-1.08,2.67-3.46V50.63a6,6,0,0,1,1-4A5.93,5.93,0,0,0,26,48.06c0,3,1.66,5,1.66,7.9,0,1.07-.31,1.66-1.14,1.66s-.73-.73-.9-.73-.35.45-.35.93a1.88,1.88,0,0,0,2,1.88,2.38,2.38,0,0,0,2.23-2.44c0-3.1-2.42-6.57-2.42-9.89a7.46,7.46,0,0,1,.7-3.18c0,6.89,5.85,11.9,5.85,14.78a1.15,1.15,0,0,1-1.22,1.17A1.12,1.12,0,0,1,31.25,59c0-.24,0-.3-.14-.3a1.72,1.72,0,0,0-.83,1.58,2.59,2.59,0,0,0,2.66,2.53A3.07,3.07,0,0,0,36,59.7c0-3.64-7.1-9.14-7.1-15a8.12,8.12,0,0,1,.91-3.88c-4.58,2.93-6,6.86-6,10.28,0,3-.1,4.46-1.63,4.46-.79,0-1-.73-1.28-.73s-.31.62-.31.8a1.91,1.91,0,0,0,1.88,2m60-34.57c1.52,0,2.67-.7,2.67-1.11,0-.14-.22-.24-.65-.24a18.71,18.71,0,0,1-3.06-.31c-1.45-.24-2.56-.79-3-.79-.15,0-.21.06-.21.17,0,.9,1.66,2.28,4.22,2.28m-7.54-4.4c.46-.27,2.38.18,4.91-1.07a2,2,0,0,1,.9-.25c1.21,0,.9,1.39,2,1.39.85,0,2-.72,2.62-.72,1,0,2.53,3.25,2.53,4.77,0,1.76-2.67,2.84-5.81,2.84-4.6,0-7.38-4-7.38-6.62a.36.36,0,0,1,.21-.34m-51.7,52c-1.13.28-3,2.08-3,4.92,0,3.39,3.62,8.61,9.62,8.61,5.05,0,6.3-3.49,6.3-5.85,0-5.22-3.23-8.89-7.41-8.89a4.18,4.18,0,0,0-4.33,4.12,5.73,5.73,0,0,0,5.84,5.7,2.92,2.92,0,0,0,3.1-3,3.84,3.84,0,0,0-3.5-3.7,1,1,0,0,0-1.08,1.07c0,.83,1.14,1.66,2.57,1.66a1.86,1.86,0,0,0,.76-.14.84.84,0,0,1,.1.42c0,.79-.75,1.28-1.95,1.28a3.38,3.38,0,0,1-3.45-3.39c0-1.25,1.08-2.14,2.64-2.14,3.07,0,4.91,2.72,4.91,5.46,0,2.45-1.36,3.88-4.13,3.88-5.53,0-8.23-5-7-10M19.72,33.05A3.28,3.28,0,0,0,17.27,36a2,2,0,0,0,2.18,2,2.2,2.2,0,0,0,1.34-.35,4.06,4.06,0,0,1-1.31-3,4.85,4.85,0,0,1,.24-1.6m-8.48.49a2.91,2.91,0,0,0,0,.51c0,1.62.86,2.52,2,2.52A3.7,3.7,0,0,0,16,34.91a7,7,0,0,1-1.23.11,4.18,4.18,0,0,1-3.51-1.48M10,36.61c0,2.63.79,3.88,2.21,3.88,1.1,0,2.59-.8,4.36-2.32a15.48,15.48,0,0,1-3.32.52c-1.25,0-2.21-.49-3.25-2.08M62.7,90.94a15.33,15.33,0,0,0,2.07-.14c.52,0,.56.31.56.52,0,.76-1.7,1.7-4.71,1.7a3.05,3.05,0,0,1-3.15-2,13.55,13.55,0,0,1-6.94,2.12c-7.11,0-8.9-3.09-11.12-4.09-1.69-.76-4.29.73-7.92-3.32a9,9,0,0,0,1.66.13c3.18,0,4.88-1.55,4.88-4,0-.32,0-.66-.06-1a6.88,6.88,0,0,1,3.69,5c.07.34,1.5.66,2.39.66A2.81,2.81,0,0,0,47.12,84c4.16-.35,7-2.8,7.55-5.92a8.3,8.3,0,0,1,3.6,2.53,6.2,6.2,0,0,1,2.08-.31,13.32,13.32,0,0,1,3.84.65c.07-.45.13-1,.83-1,1,0,.76,1.14,1.11,1.8.16.35,1,.55,1,1.24a.89.89,0,0,1-.89.91,1.74,1.74,0,0,1-.42-.08C65.17,84,65.12,89,62.21,89c-2.13,0-4.11-1.76-5-4A1.51,1.51,0,0,0,56,84c-.55,0-.86.1-1.52.82a12,12,0,0,1-8.82,3.81c-1.17,0-2.11-.1-2.34-.1s-.14,0-.14,0c0,.27,1.17,1.21,3.72,1.21,6.1,0,7.58-3.43,8.55-3.43a.81.81,0,0,1,.8.56,6.76,6.76,0,0,0,6.42,4.08ZM43,21.39c2.29,0,3.33,2,3.33,4.19,0,1-.28,2.38-.73,2.38s-.38-.8-.46-1.52c0-.94-.23-1.15-.55-1.15-.58,0-1,1.39-1,2.67,0,.8.13,1.69.76,1.69a1.2,1.2,0,0,0,.86-.37,3.08,3.08,0,0,1-3,3c-3,0-4.17-3.57-4.52-5.64C36,28.56,34.25,30,31.21,30a3.89,3.89,0,0,1-4.12-4c0-.58.21-2.11.94-2.11s.11,2.84,1.8,2.84c.4,0,1.17-.36,1.6-1.5a6.59,6.59,0,0,0,.36-2c0-.94-.2-1.53-.9-1.53a2.73,2.73,0,0,0-1.55.69,5.23,5.23,0,0,1,5.06-3.77c2.73,0,4.17,2.42,4.17,5.13a5.19,5.19,0,0,1-.1,1.17c1.2-1.93,2.81-3.42,4.57-3.42M34.36.76c0-.21-1-.41-2.46-.41C29.66.35,30,2.21,28.24,2.21S26.88.28,24.6.28c-1.38,0-2.67.24-2.67.55s1.63.24,1.63,1.38S20.07,3.78,20.07,4.5c0,.24.28.34.62.34.77,0,2-.34,2.84-.34.49,0,.94.11.94.55,0,.86-1.87,2.42-1.87,3.12,0,.21.18.28.35.28.68,0,1.86-1.77,3-1.77,1.83,0,.62,3.91,1.63,3.91s.59-3.84,2.07-3.84c1.22,0,2.11,2.66,2.94,2.66A.39.39,0,0,0,32.94,9c0-.72-1-2.21-1-3.19,0-.58.42-.85,1-.85.8,0,1.88.48,2.46.48.21,0,.42-.07.42-.31,0-.83-3.09-1.73-3.09-2.81s1.7-1.07,1.7-1.56M83.67,68.89c-.72,0-4.74,5.37-7.34,5.37-.62,0-1.15-1.17-1.15-2.08,0-.49.32-.82,1.44-1.07,5.95-1.35,4.63-5.82,9.71-5.82a5.81,5.81,0,0,1,5.92,6.2c0,4.57-6.49,10.24-7.47,10.24-.8,0-1.67-1.14-1.67-1.9,0-.24.11-.56.81-.83,3.31-1.32,5.21-4.36,5.21-5.91a.61.61,0,0,0-.62-.69c-.58,0-3.11,5.73-5.92,5.73-1.93,0-3.9-1.76-3.9-2.59,0-1.39,5.6-4,5.6-5.88,0-.73-.35-.77-.62-.77m3.74-2.14c-.49,0-1,.38-1,1.32A2.2,2.2,0,0,0,87.64,70a2.35,2.35,0,0,0,1,.28c1,0,1.79-.28,1.79-1.11,0-1.07-1.54-2.39-3-2.39M42.5,4.3c0,.62,2.17,2,3.18,2,.59,0,.75-.79.75-1.62,0-1-.45-1.07-1.34-1.07-1.14,0-2.59.31-2.59.73m3.59,6.85c0-2.08-5.67-5.92-5.67-7.48l0-.17c.4-1.15,5.12-1.94,5.12-2.88,0-.45-.84-.45-1.25-.45-3.22,0-7.93,1.18-7.93,2.32S40.62,6.54,40.62,8c0,.38-.23.52-.62.52-1.17,0-3.74-1.42-5-1.42-.55,0-.76.38-.76.94,0,1.65,2,4.8,2,5.74,0,.1,0,.24-.17.24-.63,0-3.56-3.46-4.6-3.46-.38,0-.42.52-.42,1.28V13c0,.79,0,1.27-.41,1.27-.9,0-1.32-2.52-2.18-2.52s-1.08,4.5-1.94,4.5-.15-4.94-1.1-4.94-2.28,3.28-3.05,3.28c-.28,0-.34-.28-.34-.52,0-1,.58-2.63.58-3.6,0-.48-.15-.76-.55-.76-1.08,0-3.43,1.73-4.33,1.73-.13,0-.31-.07-.31-.21,0-.83,3.78-3.46,3.78-4.64S16,6.2,16,4.88c0-1.1,3.7-2.25,3.7-3.39S15.34,0,13.64,0c-2,0-3.16.24-3.16.83,0,.89,4.65,1.17,4.65,2s-4.83,2.8-4.83,4c0,1,6.79.07,6.79,1.14s-5.91,6.26-5.91,8c0,.38.28.55.65.55,1.81,0,6.47-3.42,7.76-3.42.44,0,.48.54.48,1,0,.9-.31,2.29-.31,3.29,0,.8.2,1.35.91,1.35,1.26,0,2.45-2.18,3.31-2.18,1.11,0,.44,6.4,2.11,6.4,1.43,0,2-6.92,2.91-6.92s1.62,2,2.45,2c1,0,.55-3.49,1.67-3.49s4.67,4.16,6.23,4.16c.48,0,.65-.38.65-.86,0-1.84-2.55-6-2.55-7.31,0-.35.09-.45.47-.45,1.35,0,5.3,1.87,7.17,1.87.62,0,1-.35,1-.79M93.32,51a20.47,20.47,0,0,1,2.39-4.81c-1.15-.59-4.16-1.83-4.16-3.87,0-2.39,3-4.25,3.61-4.25.28,0,.35.23.35.68,0,1.25-.59,3.25-.59,4.33s.61,1.9,1.17,1.9,2.22-2.07,2.22-4.12a4.66,4.66,0,0,0-4.22-4.77c-.93,0-2.64,1.52-6.61,1.52-7.44,0-9.14-7.37-9.14-10.59,0-.14,0-.17.07-.17a5.3,5.3,0,0,0,3.25.89c1.22,0,2.32-.3,4.1-.3,4.13,0,6,2.87,8.52,6.53,1.57,1,5.28,2.54,5.28,6.93,0,3.87-4.12,6-5.13,10.17,1.59-.17,2.52-3,4.15-3,.83,0,1.21.67,1.21,1.71A7.5,7.5,0,0,1,97.26,55a2.64,2.64,0,0,0,0-.52c0-1-.37-2.35-1.47-2.35-1.73,0-2.29,1.87-3.26,3.43-1-3.53-2.35-6.72-4.77-8.66s-6.68-.9-6.68-4.49c0-1,.63-2.36.63-3.47a1.59,1.59,0,0,0-.29-1c3.33,1.24,2.15,3.45,4.19,5.74,1.28,1.44,4.8,2.83,6.85,8.82a7.24,7.24,0,0,0,.07-.93c0-5.13-6.78-10.15-7.37-12.22,3.94.45,4.64,1.42,6.51,6.61.37,1.07,1.62,3.74,1.62,5M19,22.77a7.24,7.24,0,0,0,.31-2c0-1.67-.76-4.19-3.12-4.19a2.29,2.29,0,0,0-2.31,2.35c0,2.74,2.73,3.84,5.12,3.84m-2.95,8.72a2.85,2.85,0,0,1-2.38-2.7c0-.69.52-1.55.9-1.55.13,0,.2.1.23.34a4,4,0,0,0,2.36,3.15l.18.18c0,.23-.66.58-1.29.58m4.1-3.25c0,.49-.28,1.11-.84,1.11-1.21,0-2.18-1.84-2.18-2.88,0-.65.37-.72.9-.72a.82.82,0,0,1,.52.14c.31.17.31.86.69,1.38.21.34.91.73.91,1M18.93,24.6a5.87,5.87,0,0,0-.76,0,7.25,7.25,0,0,0-4,1.11c-3.05,2-2.55,5.08-3.05,5.88a.93.93,0,0,0-.1.38.73.73,0,0,0,.66.65c.28,0,.45-.06.59-.06.83,0,1.76.59,3.11.59a6.6,6.6,0,0,0,2.91-.84,7.2,7.2,0,0,0,3.46-4.84c0-.66-.51-.55-1-1.17s-.24-1-.55-1.42a3,3,0,0,0-1.28-.25m3.67,5.57a6.61,6.61,0,0,0-1.56,4c0,1.87,1.13,3.42,2.9,3.42s2.5-1.45,2.5-2.93c0-2.33-2.11-4-3.84-4.48m-7.41-6.64a4.12,4.12,0,0,1-2.26.77,2.62,2.62,0,0,1-2.66-2.67,2.91,2.91,0,0,1,1.84-2.73,2.88,2.88,0,0,0,0,.59,4,4,0,0,0,3.12,4M76.75,43.67A1.34,1.34,0,1,1,78.06,45a1.33,1.33,0,0,1-1.31-1.35m.9,39.8c.18,0,.38.11.38.72a3,3,0,0,1-1.58,2.56,6.74,6.74,0,0,1-3.79,1.11,8.1,8.1,0,0,0,.49-2.53,5.72,5.72,0,0,0-.08-.79h.46a7.86,7.86,0,0,0,4.12-1.07M77.93,80a1.27,1.27,0,0,0,.33-1v-.79c0-1-1.51-1.6-3.59-1.6-2.52,0-3.87,1.15-3.87,1.63v1.6c0,.66,1.52,1.31,3.39,1.31A5.76,5.76,0,0,0,77.93,80m1.79.39a10.16,10.16,0,0,1-6.5,2.25,8.6,8.6,0,0,1-3-.6c-.33,0-.71.36-1.1.81a7.8,7.8,0,0,0-1.9,4.74,2.84,2.84,0,0,0,3.08,2.76c6.47,0,11.33-4,11.33-7.32,0-1.88-1.12-2.64-1.92-2.64m1.21-29.1c0,.86.28,1.86,1.14,1.86s1.36-1.1,1.36-2.31c0-1.39-.25-2.46-.25-3,0-.24.11-.35.25-.35.51,0,1,1.45,1.55,1.45s1.57-1.14,1.94-1.14l.13.18c0,.52-.8,1.66-.8,2.11s2,.45,2,.8c0,.51-2.13.51-3.11,1s-1.57.93-1.57,1.63.69.83,1.66.83c2.32,0,3.94-1.24,4.47-1.24l.16.16c0,.35-1.18,1.5-1.18,2s2.16,1.28,2.12,1.63c0,.1-.18.14-.41.14s-1-.1-1.42-.1c-.29,0-.52,0-.62.17s.07,2.1-.43,2.1-1.62-4.07-4.28-4.07c-.38,0-.65.3-.65.83,0,1.38,1.34,3,2.62,3.74.59.37,1.55.75,1.55,1,0,.42-2.21,0-2.21.73s.28,1.55.28,2.1c0,.18,0,.39-.24.39-.41,0-1.42-1.9-1.91-1.9s-1.31,1.13-1.69,1.13l-.17-.2c0-.8,1.27-2.6,1.27-4.36,0-.83-.1-2.63-1.1-2.63-.83,0-1.77,1.31-2.18,2.63-.24.76-.07,3.7-.62,3.7s-.38-2-1.08-2c-.51,0-1.61.93-2,.93l-.13-.1c0-.42,1-1.76,1-2,0-.52-2.29-.59-2.29-1,0-.25.9-.42,1.73-.56,1.75-.31,4.35-1.59,4.35-3.39,0-2-1.94-2.87-3.21-3.7-.66-.42-1.38-.76-1.38-1s.84-.28,1.17-.28c.52,0,1,0,1-.45s-.08-.93-.08-1.41,0-.62.18-.62c.51,0,1.24,1.69,1.59,1.69.55,0,1.31-1.39,1.85-1.39.15,0,.22.11.22.41,0,1.28-.66,2.74-.66,4M64.43,41.18c.38,2.94,4.32,1.46,4.32,5,0,.52-.13,1.29-.13,1.94s.07,1.42.65,1.42.73-.42.73-1-.13-1.25-.13-1.62a1.34,1.34,0,0,1,1.38-1.49c1.3,0,2.33,1.35,4.29,1.35-.45,2.21-5,1.62-5,4,0,1.21,1.21,1.48,2,1.48s1-.1,1-.71c0-.37-.07-.73-.07-1a.26.26,0,0,1,.27-.27c.76,0,4.5,2.83,4.5,3.7s-3.94,1.59-5.09,1.59a.37.37,0,0,1-.41-.37c0-.26.59-1,.59-1.4s-.52-.52-1.91-.52c-.65,0-1.15.07-1.15.59,0,.94,1.53,2.08,1.53,3,0,.69-.41,1.09-1.53,1.09-.92,0-2.35-.72-2.35-1.93,0-1,1-1.93,1-2.52a.48.48,0,0,0-.55-.45c-1.29,0-1.63,3.38-6.16,3.77A3.48,3.48,0,0,0,63.53,54c0-.73-.18-1.32-.18-2.12,0-1,.49-1.55,1.19-1.55,1.27,0,1.9,1.79,2.72,1.79a1,1,0,0,0,.94-1c0-2.63-5.05-2.25-5.05-6a8.67,8.67,0,0,1,1.28-4M71,63.67a.83.83,0,0,0,.83.86,1,1,0,0,0,.91-1c0-.72-.66-1.72-1.3-1.72-.27,0-.16.41-.23.86s-.21.76-.21,1m-1.8-4.6c3.65.69,5.61,3.43,5.61,6a3.13,3.13,0,0,1-3,3.38,2.94,2.94,0,0,1-3.05-3.15c0-1.45,1.16-3,1.16-4.46a2.66,2.66,0,0,0-.67-1.76M64.6,65a1.43,1.43,0,0,1,.46,1c0,.52-.25,1.07-.25,1.66a1.53,1.53,0,0,0,1.52,1.56A1.61,1.61,0,0,0,68,67.54C68,66.24,66.61,65,64.6,65m11.46-2.21a2,2,0,0,1,.35,1.1c0,1-.66,1.87-.66,2.88a2.07,2.07,0,0,0,2.18,2.08,2.39,2.39,0,0,0,2.38-2.5c0-1.83-1.66-3.39-4.25-3.56M65.44,60.9c1.59.21,2,.76,2,1.21,0,.76-.7,1-1.36,1-.48,0-1-.09-1.62-.09a2.64,2.64,0,0,0-2.15.89A1.19,1.19,0,0,1,63.39,65c0,2-5.56.34-5.56,5.5,0,2.73,2.83,5.71,7.11,5.71,2.22,0,3.64-.73,3.64-1.56,0-.65-1.17-.21-1.17-.76,0-.25.4-.69.4-1.07,0-.18-.12-.48-.4-.48-.63,0-1.81,1-4.19,1-1.88,0-3.7-1.07-3.7-2.52,0-.31.14-.48.35-.48s.48.13.71.13.26-.13.26-.52,0-1.45.65-1.45,1.9,2.42,6.68,2.42c1.59,0,4.68-.31,5.81-1.35a9,9,0,0,1-9.24,8.83,9.76,9.76,0,0,1-9.93-10A10.19,10.19,0,0,1,65.06,58.31c1.52,0,2.8.52,2.8,1.17,0,.9-2.26.35-2.42,1.42m-25-35.43c0-.59-.14-.72-.29-.72-.35,0-.72.4-1.27,1.34.06,1.25.27,1.81.62,1.81s.94-1.22.94-2.43m-4.74,1.42c.37,0,.85-.42,1.76-1.42a8.8,8.8,0,0,0,.07-1.39c0-.7-.28-1.45-.7-1.45-1,0-1.55,2.77-1.55,3.5,0,.41.19.76.42.76M41.28,30c.86,0,1.84-3.31,1.84-5.39,0-.45-.08-.93-.28-.93-.73,0-1.94,3.42-1.94,5.28,0,.73.17,1,.38,1M32.8,28.07c1.18,0,2.53-6.37,2.53-7.45,0-.27-.1-.48-.35-.48-1.07,0-2.56,6.06-2.56,7.4,0,.25.07.53.38.53m3.78,2.62c-1.5,0-1.56,1.81-1.56,5.44-1.11-2.39-2.94-5-5.1-5-1.44,0-2,1-2,2.66A5.63,5.63,0,0,0,28,35a1.31,1.31,0,0,1,1.42-.83,6.31,6.31,0,0,1,4.46,2.7,23.24,23.24,0,0,0-3.77-.49,4.34,4.34,0,0,0-1.83.32A4.57,4.57,0,0,0,26,40.9,6.84,6.84,0,0,0,26.06,42c1.22-2.69,4.42-3.91,6.5-3.91a7.5,7.5,0,0,1,1,.07A5.67,5.67,0,0,0,32.15,42c0,.55-.25.58-.63.58,0,1.14.9,2.84.9,3.71a.73.73,0,0,1-.34.66c0,1.52,1.53,2.62,1.53,3.6a.82.82,0,0,1-.18.55c.1.63,1.77,1.69,2,2.14.35.73.59.8.76.8.59,0,1.52-.69,1.52-1.32a.86.86,0,0,0-.3-.55A5,5,0,0,1,36.09,50a.71.71,0,0,1-.67-.48c-.12-.45-.19-2.08-.46-2.86-.46-.11-.67-.29-.67-1.22,0-.45.29-2.22.29-2.84a.5.5,0,0,1-.5-.55c0-1.11,1.12-2,1.42-3.39A5.09,5.09,0,0,1,38,42.88a9.74,9.74,0,0,1-.25,2c1.46-.73,3.63-1.8,3.63-4,0-1.29-.59-2.7-4.49-3.25a11.86,11.86,0,0,1,4-.7c2.21,0,3.5.7,3.77,2.25A4.25,4.25,0,0,0,45.44,37c0-1.7-1.42-2.8-3.23-2.8-2.11,0-4,1.1-6,2.45.91-1.86,1.54-3,2.64-3a2.43,2.43,0,0,1,.52.08c-.42-1.53-2-3-2.8-3M14.49,9.14c0,.69-2.62,3-3.56,3-.34,0-.45-.42-.45-.8a3.13,3.13,0,0,1,.7-2,3.85,3.85,0,0,1,2.29-.63c.47,0,1,.11,1,.39m80.39,46.5c1.73,0,3.12,2.25,3.12,4.89a10.88,10.88,0,0,1-3.67,7.91c0-4.67-5.75-3.17-5.75-6.57a2.31,2.31,0,0,1,2.29-2.43,3.49,3.49,0,0,1,2.58.94,3.06,3.06,0,0,1-.93-2.21,2.37,2.37,0,0,1,2.36-2.53M69.2,20.25a2.6,2.6,0,0,0-1.79-.7,2.79,2.79,0,0,0-2.77,2,3.13,3.13,0,0,1-.24-1.17A3.35,3.35,0,0,1,68,17c2.23,0,3.08,1.18,3.4,1.18s.7-.34,1-.34.38.58.38,1c0,1.39-.62,3.77-2.18,4.64a3.54,3.54,0,0,0-1.73-1.66.54.54,0,0,1-.35-.53,1.39,1.39,0,0,1,.76-1.06M64,22.77A3.66,3.66,0,0,0,66.64,24c.39,0,.84-.1,1.07-.1s.53.14.53.39a2.26,2.26,0,0,1-.76,1.34,3.28,3.28,0,0,0,1.35.25,4.08,4.08,0,0,0,4.22-4.37,4.85,4.85,0,0,1,.65,2.22c0,3.77-2.76,5.22-5.32,5.22a7.53,7.53,0,0,1-2.71-.55c-.65,0-.61,1.31-1.07,1.28-.79-.13-1.52-1.9-1.52-3.77A5.52,5.52,0,0,1,64,22.77m-24-10.07c0,1.21,4.32,7.13,5.16,7.13.69,0,1.2-1.21,1.2-2.25a1.35,1.35,0,0,0-.2-.76c-.63-.87-5-4.32-6-4.32ZM89.85,9.86C89.85,7.41,84,6.79,84,6.23S87.27,5,89,5c-2.6-3.33-6.31-3-6.31-3.57,0-.35,2.78-1,5.33-1,2.15,0,4.15.49,4.15,2.11,0,.91-.72,1.84-.72,3.22A1.28,1.28,0,0,0,92.8,7.13c1.08,0,1.32-1.14,1.32-2.35,0-1-.17-1.76-.17-2.25A2.3,2.3,0,0,1,96.36.11c1.19,0,1.45.51,3.2.51a2.64,2.64,0,0,0-1.29,2.05c0,1.45.93,2.46.93,5.42,0,5.47-5.11,7.41-11.39,7.41a36.52,36.52,0,0,1-5.35-.41c-.28,0-.35-.11-.35-.28,0-.45,2.45-.69,2.45-2.9a17,17,0,0,0-.27-2,.29.29,0,0,1,.27-.29c.53,0,1.57,2,3.51,2a1.64,1.64,0,0,0,1.78-1.77m5.86-3.49c0,3.08-2.26,5.43-6.3,6.09.44,0,.87,0,1.28,0,4.75,0,6.48-2.15,6.48-3.95a2.2,2.2,0,0,0-1.46-2.18M92.43,34.19c0-.73-1.84-.79-2-2.84,0-.31-.14-.86-.53-.86-.62,0-.13,1.9-.82,1.9-1.59,0-2.11-3.11-2.7-3.11-.14,0-.33.1-.33.52s.09.62.09,1.07-.1.76-.52.76c-.94,0-1.76-2.19-2.56-2.19a.32.32,0,0,0-.34.28c0,.42.68,1.19.68,1.56,0,.83-2.26.39-2.26,1.08,0,.31.32.41.73.41.73,0,1.88-.31,2.46-.31.35,0,.87.07.87.52s-1.25,1.11-1.25,1.56a.35.35,0,0,0,.38.31c.94,0,2.6-1.63,3.78-1.63.21,0,.73.11.73.41,0,.46-1.19,1.25-1.19,1.91,0,.17.12.38.31.38.63,0,1.46-1.63,2.64-1.63.44,0,1.11.18,1.45.18s.39-.18.39-.28M67.64,7.79c0-.38-1.35-1.11-1.35-1.53l.17-.1c.38,0,1.05.14,1.57.14s.5-1.94.86-1.94.66,1.84,1,1.84,1.28-.52,1.63-.52l.14.1c0,.24-.87,1.18-.87,1.45s1.94.69,1.94,1-2,.3-2,.62.72,1.2.72,1.52l-.11.1c-.27,0-1.35-.48-1.65-.48s-1,1.42-1.32,1.42c-.1,0-.17-.15-.17-.32L68.2,9.69c0-.14-.06-.28-.25-.28l-1.44,0c-.18,0-.24,0-.24-.1,0-.28,1.37-1.25,1.37-1.49m6.75,6.57c-2.42,0-4-1.21-4-1.83a.49.49,0,0,1,.49-.53c.75,0,2.42,1.19,3,1.19.14,0,.24-.08.24-.28,0-.62-.58-1.67-.58-2.17,0-.15.11-.25.31-.25.93,0,2.31.38,3,.38.25,0,.32-.13.32-.28,0-.76-2.25-2.25-2.25-2.7s2.8-1,2.8-1.69S73.91,6,73.91,5.33c0-.49.73-1.32.73-1.7,0-.17-.14-.23-.38-.23s-2,.65-2.67.65c-.34,0-.76-.07-.76-.55,0-.79,1.35-1.66,3.47-1.66,3.42,0,5.46,2.34,5.46,6.3,0,5-3.49,6.22-5.37,6.22M51,74.23a1.63,1.63,0,0,1-.38,1,2.57,2.57,0,0,0-1.93-1c-3.57,0-2.23,5.15-6,5.15a18.93,18.93,0,0,1-2.33-.2c-.24,0-.38.1-.38.3,0,.91,1.28,3.12,4.85,3.12s7-2.18,7-4.88a3.39,3.39,0,0,0-.32-1.41,1,1,0,0,1,.8-.35c.55,0,.87.62,1.38.62a.94.94,0,0,0,1-1,1.06,1.06,0,0,0-.65-1,1.17,1.17,0,0,0,.49-.93,1.1,1.1,0,0,0-1.12-1.13,1,1,0,0,0-.77.34c-.07-.63-.41-1.21-1-1.21a.89.89,0,0,0-.91,1c0,.56.38,1,.38,1.6m-9.31,1.31c-1,0-2.59-1.11-2.59-1.73a.84.84,0,0,1,.86-.8c.87,0,2.42,1.07,2.42,2,0,.24-.17.55-.69.55M32,67.78c2.77.7,4.16,2.19,4.43,4a7.7,7.7,0,0,0,1.29,3.78,6,6,0,0,0,4.06,1.83c1.23,0,2.24-.42,2.24-1.56s-1.71-4-4.19-4c-.25,0-.56,0-.9,0a1.75,1.75,0,0,1-1-.32c-.54-.47-.72-3.07-1.75-4.63A4.38,4.38,0,0,0,32,64.6c-1.2,0-2.57.67-2.57,1.64,0,.58.33,1,2.53,1.54m17.38-4.22c0-1.56-3.21-1.58-3.21-3.93A5.42,5.42,0,0,1,47.29,57a3.79,3.79,0,0,0,2.61,3.33C53,61.42,53.39,63.15,53.39,65c0,3.11-2.18,7-7.79,7a7.89,7.89,0,0,1-7.72-7.41c0-.93.26-2,.84-2s.69.42,1.11.82c1.55,1.57,3.24,2,5.71,2,2.21,0,3.84-.9,3.84-1.84m.15,2.5c-1.22.48-1.66.45-1.66,1.66,0,.45-.12,1-.12,1.35s.06.65.56.65c1.23,0,3.22-2.11,3.22-3.91a.59.59,0,0,0-.59-.68c-.29,0-.59.55-1.41.93M38.47,48.58c0-2.21,5.28-3.39,5.28-6.12a4.78,4.78,0,0,0-.49-1.84c1.83,1,3.17,2.7,3.17,4.08,0,2.39-2.48,3.5-2.48,5,0,1.73,2.66,2,2.66,4.15,0,1.77-2.52,3.81-2.52,6.09a3.45,3.45,0,0,0,3.14,3.46,7.87,7.87,0,0,1-1.77.25c-3.49,0-7.09-2.88-7.09-6.3a5.87,5.87,0,0,1,1.84-4.25,5,5,0,0,0,2.56,1.37c.55,0,.79-.27.79-.68,0-1.29-5.09-2.46-5.09-5.2"/><path class="cls-1" d="M45.62,122.61a4.57,4.57,0,0,0,4-2.44,24.38,24.38,0,0,1-1.38-6.31c-.38-6.32,2.05-12.26,4.71-12.43,2-.1,3.52,1.74,3.7,4.73.48,7.87-2.14,11.17-3.45,14a4.66,4.66,0,0,0,3.85,3,2.53,2.53,0,0,0,1.63-.59,6.11,6.11,0,0,1-.26-1.88c0-4.57,2.93-8.42,5.48-8.42,2,0,3.17,2.68,3.17,4.44,0,2.08-1.74,3.78-4.35,5.42a3.16,3.16,0,0,0,2,.77c3.72,0,5.67-4.49,7.11-8.61.26-.78.72-1.89,1.62-1.89,1.58,0,2.23,10.31,4.83,10.31,1.11,0,2-2.29,2-4.05,0-1.3-.46-1.43-.46-3.32,0-2.08,1.11-3.85,2.61-3.85.91,0,1.25.91,1.25,2,0,4.17-3,11.94-7.44,11.94-3.33,0-3.06-5.75-4.24-5.75s-3.14,5.81-9.59,5.81a4.1,4.1,0,0,1-3.07-1.57A7.37,7.37,0,0,1,55,125.42c-2.41,0-3.45-2.49-4.43-2.49-1.17,0-2.47,2.55-6.39,2.55-3.13,0-3.66-4.17-4.76-4.17s-2.49,4.17-4.1,4.17c-2.76,0-3.33-7.23-5.74-7.23-1.9,0-7.87,7.35-9.49,7.18a1,1,0,0,1-.87-1.21c.09-.9.88-3.32,1.18-4.46.54-2,1-4.16,1.28-4.86a1.74,1.74,0,0,1,1.58-1.13c.29,0,.39.57.48,1,.32,1.63.79,3.27,1.3,3.27.92,0,3.95-5.81,5.71-5.81,2.15,0,2.42,9.14,5.34,9.14,1,0,1.71-1.18,2.35-2.62.07-2.42.72-5.86,2.68-5.86,1.37,0,2,3.06,1.05,5.73,0,3.19,2.08,4,3.45,4m48.64-6.12c0-1.64-1.48-3.93-3.71-3.93-2.94,0-5.8,3.2-5.8,7.64,0,4,2.46,5.28,5,5.28,4.3,0,6.91-3.53,8.29-6.46.65,2,1,6.46,2.66,6.46.66,0,1.11-.32,1.9-2.09,2-4.37,3.84-9.38,6.45-9.38,1,0,.39,1.75,2.74,1.75a1.91,1.91,0,0,0,1.89-2c0-1.5-1.36-2.68-3.46-2.68-6.12,0-7.42,9.2-8.41,9.2-1.62,0-1.11-7.37-2.28-7.37s-1.56,1.24-1.7,1.82c-.84,3.39-3.26,8.29-6.91,8.29-.84,0-2.35-.33-2.35-1.18s5.74-1,5.74-5.4m-39.75-8.57c-.11-1.82-.54-2.64-1.52-2.57-1.3.07-1.9,4.15-1.64,8.45.18,2.8.59,3.23,1,3.21.72,0,2.44-5.06,2.18-9.09m-10.59-3.83a1.9,1.9,0,0,0-2-1.76,2.57,2.57,0,0,0-2.27,2.94,1.91,1.91,0,0,0,1.95,2c1.43,0,2.47-1.63,2.34-3.14M64.21,117.4c0-1.12-.6-2-1.31-2s-2,.65-2,2.74a4.08,4.08,0,0,0,.85,2.75,3.39,3.39,0,0,0,2.42-3.46m25.49-2.22c1.37,0,1.77,1.63,1.43,2.61a4.17,4.17,0,0,1-3.33,2.41c-.38-1-.59-5,1.9-5M0,116.22a27.58,27.58,0,0,1,1.17-9.13c.58-2,1.11-2.74,2.94-3.13,1.42-.27,1.3,1.23,1,3a34.71,34.71,0,0,0-.78,10.24c.25,4.69,2.41,6.51,4.76,6.51,3.52.08,5.08-2.85,5.73-7.1a12.1,12.1,0,0,0-.2-6.06c-.17-.59-.7-1.89-.91-2.87-.25-2.49.91-3.65,1.9-4,1.17-.31,1.63.27,2.08,1.64.59,2.09.65,4.83.46,8.74-.26,5.35-2.93,11.81-9.58,11.67-5.74-.13-8.29-3.85-8.54-9.52"/></g></g></svg>